<?xml version="1.0" standalone="no"?><!DOCTYPE svg PUBLIC "-//W3C//DTD SVG 1.1//EN" "http://www.w3.org/Graphics/SVG/1.1/DTD/svg11.dtd"><svg t="1570877877263" class="icon" viewBox="0 0 1025 1024" version="1.1" xmlns="http://www.w3.org/2000/svg" p-id="9781" xmlns:xlink="http://www.w3.org/1999/xlink" width="200.1953125" height="200"><defs><style type="text/css"></style></defs><path d="M512.473172 1023.995242A511.814852 511.814852 0 0 1 313.545134 40.351073a512.244696 512.244696 0 0 1 398.855715 943.658633 508.815937 508.815937 0 0 1-199.927677 39.985536z m0-943.658634C274.559237 80.336608 80.629391 274.266455 80.629391 512.18039s193.929846 431.843781 431.843781 431.843781 431.843781-193.929846 431.843781-431.843781S751.386745 80.336608 512.473172 80.336608z" fill="" p-id="9782"></path><path d="M512.473172 1023.995242c-44.983727 0-88.967816-14.994576-128.953351-44.983728s-68.975048-64.976495-96.964924-112.959137c-53.980473-94.965646-83.969624-220.920083-83.969624-353.871987s29.989151-258.906341 83.969624-353.871988c27.989875-47.982642 59.978303-85.968901 96.964924-112.959137S467.489445 0.365538 512.473172 0.365538s88.967816 14.994576 128.953351 44.983727 68.975048 64.976495 96.964923 112.959137c53.980473 94.965646 83.969624 220.920083 83.969625 353.871988s-29.989151 258.906341-83.969625 353.871987c-27.989875 47.982642-59.978303 85.968901-96.964923 112.959137s-82.969986 44.983727-128.953351 44.983728z m0-943.658634c-123.955159 0-229.916828 197.9284-229.916828 431.843782s105.961669 431.843781 229.916828 431.843781 229.916828-197.9284 229.916828-431.843781S637.42797 80.336608 512.473172 80.336608z" fill="" p-id="9783"></path><path d="M845.352753 887.044783a39.985535 39.985535 0 0 1-39.985535-39.985535c0-8.996745-14.994576-31.988428-71.973963-53.980473s-136.950458-34.987343-220.920083-34.987343-161.941418 11.995661-220.920083 34.987343-71.973964 44.983727-71.973963 53.980473a39.985535 39.985535 0 0 1-79.971071 0c0-19.992768 6.997469-49.981919 38.985897-79.971071 19.992768-18.993129 48.982281-34.987343 83.969624-48.98228 66.975772-25.990598 155.943588-40.985174 249.909596-40.985174s181.934186 13.994937 249.909596 40.985174c34.987343 13.994937 62.977218 29.989151 83.969624 48.98228 31.988428 29.989151 38.985897 59.978303 38.985897 79.971071a39.985535 39.985535 0 0 1-39.985536 39.985535zM512.473172 366.233186c-93.966008 0-182.933824-14.994576-249.909596-41.984812-34.987343-13.994937-62.977218-30.98879-83.969624-49.981919-31.988428-29.989151-38.985897-60.977941-38.985897-80.970709a39.985535 39.985535 0 0 1 79.971071 0c0 13.994937 21.992044 36.98662 71.973963 56.979387s135.95082 35.986982 219.920445 35.986982 161.941418-12.995299 219.920444-35.986982 71.973964-42.98445 71.973963-56.979387a39.985535 39.985535 0 1 1 79.971071 0c0 19.992768-6.997469 50.981558-38.985897 80.970709-19.992768 18.993129-48.982281 35.986982-83.969624 49.981919-64.976495 26.990236-153.944311 41.984812-247.910319 41.984812z" fill="" p-id="9784"></path><path d="M512.473172 1013.998858a39.985535 39.985535 0 0 1-39.985535-39.985535V50.347457a39.985535 39.985535 0 0 1 79.97107 0v923.665866a39.985535 39.985535 0 0 1-39.985535 39.985535z" fill="" p-id="9785"></path><path d="M974.306105 552.165925H50.640239a39.985535 39.985535 0 0 1 0-79.971071h923.665866a39.985535 39.985535 0 1 1 0 79.971071z" fill="" p-id="9786"></path></svg>