<?xml version="1.0" standalone="no"?><!DOCTYPE svg PUBLIC "-//W3C//DTD SVG 1.1//EN" "http://www.w3.org/Graphics/SVG/1.1/DTD/svg11.dtd"><svg t="1565086504857" class="icon" viewBox="0 0 1024 1024" version="1.1" xmlns="http://www.w3.org/2000/svg" p-id="2497" xmlns:xlink="http://www.w3.org/1999/xlink" width="200" height="200"><defs><style type="text/css"></style></defs><path d="M947.2 102.4h-870.4c-15.36 0-25.6 10.24-25.6 25.6v768c0 15.36 10.24 25.6 25.6 25.6h870.4c15.36 0 25.6-10.24 25.6-25.6v-768c0-15.36-10.24-25.6-25.6-25.6z m-25.6 51.2v476.16l-135.68-135.68c-10.24-10.24-25.6-10.24-35.84 0l-135.68 135.68-263.68-263.68c-10.24-10.24-25.6-10.24-35.84 0l-212.48 212.48V153.6h819.2z m-819.2 716.8v-220.16l230.4-230.4 366.08 366.08c5.12 5.12 12.8 7.68 17.92 7.68s12.8-2.56 17.92-7.68c10.24-10.24 10.24-25.6 0-35.84l-84.48-84.48 117.76-117.76 153.6 153.6v168.96h-819.2z" p-id="2498"></path><path d="M614.4 460.8c71.68 0 128-56.32 128-128s-56.32-128-128-128-128 56.32-128 128 56.32 128 128 128z m0-204.8c43.52 0 76.8 33.28 76.8 76.8s-33.28 76.8-76.8 76.8-76.8-33.28-76.8-76.8 33.28-76.8 76.8-76.8z" p-id="2499"></path></svg>