<?xml version="1.0" encoding="utf-8"?>
<!-- Generator: Adobe Illustrator 16.0.4, SVG Export Plug-In . SVG Version: 6.00 Build 0)  -->
<!DOCTYPE svg PUBLIC "-//W3C//DTD SVG 1.0//EN" "http://www.w3.org/TR/2001/REC-SVG-20010904/DTD/svg10.dtd">
<svg version="1.0" id="Layer_1" xmlns="http://www.w3.org/2000/svg" xmlns:xlink="http://www.w3.org/1999/xlink" x="0px" y="0px"
	 width="240px" height="240.5px" viewBox="0 0 240 240.5" enable-background="new 0 0 753 240.5" xml:space="preserve">
<g>
	<path d="M165.727,2.114c-3.599,0-7.245,0.229-10.909,0.699C121.455,7.092,95.111,30.202,85.1,60.09
		c10.858,7.963,18.559,20.19,20.41,34.599c1.845,14.408-2.526,28.183-11.028,38.625c13.247,20.309,34.83,34.3,59.271,37.726
		c5.998-17.956,21.812-31.832,41.841-34.381c2.204-0.283,4.393-0.421,6.557-0.421c9.615,0,18.745,2.722,26.546,7.513
		c15.941-17.733,24.36-42.049,21.091-67.558C244.297,33.376,207.793,2.11,165.727,2.114"/>
	<path d="M228.697,143.75c-13.115,14.588-31.32,24.721-52.306,27.404c-3.669,0.472-7.315,0.701-10.919,0.701
		c-3.963,0-7.876-0.277-11.719-0.816c-2.354,7.048-3.196,14.725-2.188,22.59c3.293,25.689,25.191,44.45,50.426,44.45
		c2.162,0,4.352-0.138,6.553-0.421c27.89-3.564,47.611-29.081,44.036-56.979C250.54,164.778,241.372,151.533,228.697,143.75"/>
	<path d="M202.151,136.237c-2.165,0-4.354,0.138-6.557,0.421c-20.029,2.549-35.843,16.425-41.841,34.381
		c3.843,0.539,7.756,0.816,11.719,0.816c3.604,0,7.25-0.229,10.919-0.701c20.985-2.684,39.191-12.816,52.306-27.404
		C220.896,138.959,211.766,136.237,202.151,136.237"/>
	<path d="M55.057,50.234c-2.156,0-4.339,0.137-6.534,0.418c-27.89,3.579-47.6,29.096-44.024,56.979
		c3.288,25.71,25.215,44.459,50.464,44.459c2.149,0,4.324-0.136,6.511-0.415c13.482-1.733,25.053-8.589,33.008-18.361
		c-6.774-10.386-11.367-22.423-13.049-35.545c-1.682-13.12-0.271-25.923,3.667-37.679C76.592,53.853,66.148,50.234,55.057,50.234"/>
	<path d="M85.1,60.09c-3.938,11.756-5.349,24.559-3.667,37.679c1.682,13.122,6.275,25.159,13.049,35.545
		c8.502-10.442,12.873-24.217,11.028-38.625C103.658,80.28,95.958,68.053,85.1,60.09"/>
</g>
</svg>
