<svg height="200" viewBox="0 0 1024 1024" width="200" xmlns="http://www.w3.org/2000/svg"><path d="m689.3568 820.9408h-355.7376c-13.9264 0-25.1904-11.264-25.1904-25.1904v-330.5984h-211.968c-10.1888 0-19.4048-6.144-23.296-15.5648-3.9424-9.3696-1.7408-20.2752 5.4784-27.4432l415.0272-415.0784c9.472-9.472 26.1632-9.472 35.6352 0l411.392 411.3408c7.2704 4.4544 12.0832 12.4416 12.0832 21.5552 0 14.1312-11.52 24.576-25.7024 25.1904-.1536 0-.3072 0-.512 0h-211.968v330.5472c0 13.9264-11.3152 25.2416-25.2416 25.2416zm-330.5472-50.432h305.3568v-330.5472c0-13.9264 11.264-25.1904 25.1904-25.1904h176.3328l-354.2016-354.2528-354.2016 354.2528h176.3328c13.9264 0 25.1904 11.264 25.1904 25.1904z"/><path d="m96.4096 923.1872h830.1056v100.8128h-830.1056zm0 0"/></svg>
